<?xml version="1.0" encoding="utf-8"?>
<!-- Generator: Adobe Illustrator 23.0.1, SVG Export Plug-In . SVG Version: 6.00 Build 0)  -->
<svg version="1.1" id="Layer_1" xmlns="http://www.w3.org/2000/svg" xmlns:xlink="http://www.w3.org/1999/xlink" x="0px" y="0px"
	 viewBox="0 0 320.8 470.5" style="enable-background:new 0 0 320.8 470.5;" xml:space="preserve">
<style type="text/css">
	.st0{fill:#FFFFFF;stroke:#FFFFFF;stroke-miterlimit:10;}
	.st1{fill:#FFFFFF;}
</style>
<g>
	<path class="st0" d="M160.4,302.8c47.2,0,85.4-38.2,85.4-85.4V85.9c0-47.2-38.2-85.4-85.4-85.4S75,38.7,75,85.9v131.5
		C75,264.6,113.2,302.8,160.4,302.8z"/>
	<path class="st1" d="M275.8,136.6v30h15v50.7c0,71.9-58.5,130.4-130.4,130.4S30,289.2,30,217.3v-50.7h15v-30H0v80.7
		C0,300.7,64,369.4,145.4,377v63.5H55v30h210.9v-30h-90.5v-63.4c81.4-7.6,145.4-76.3,145.4-159.7v-80.7L275.8,136.6L275.8,136.6z"/>
</g>
</svg>
